<svg id="New_Layer" data-name="New Layer" xmlns="http://www.w3.org/2000/svg" viewBox="0 0 421.47 330.74"><defs><style>.cls-1{fill:#201e1d;fill-rule:evenodd}</style></defs><path class="cls-1" d="M99.67 92.47c-4.83 4.51-10.21-.29-15.61-.06-2.59.11-4.86 1.46-7.33 2.07-4.41 1.1-7-2.09-9.2-5.41-3.71-5.62-7.13-11.71-7.53-18.56S62.51 55 70.12 53.62c5.45-1 9.63 2.63 14.81 3a.67.67 0 0 0 .31 0 15.81 15.81 0 0 0 4.39-.8 18.19 18.19 0 0 0 2-.66c3.07-1.06 6.12-2.16 9.31-1.29 8.68 2.37 9.19 13.16 7.55 20.37-1.37 6.24-4.09 13.81-8.82 18.23zm-23-47a10.52 10.52 0 0 1 1.24-3 18.62 18.62 0 0 1 6.15 9.33 13.65 13.65 0 0 0-7.39-6.31zm20.08-3.33a10.23 10.23 0 0 1-2.21 9.56c-2.16 2.21-5.49 3-8.49 3.38a.66.66 0 0 0 0-.19 12.35 12.35 0 0 1 10.7-12.72zm5.58 10.68a11 11 0 0 0-6.69-.22c.13-.14.27-.25.39-.4a11.8 11.8 0 0 0 2-10.82.71.71 0 0 0-.09-.16.61.61 0 0 0-.69-.6 14.08 14.08 0 0 0-12.11 9.7 20.66 20.66 0 0 0-7-9.49.57.57 0 0 0-.61-.07h-.06l-.12.09a.6.6 0 0 0-.09.06 11.89 11.89 0 0 0-2.15 4.77.65.65 0 0 0 .15.64.68.68 0 0 0 .36.26A12.14 12.14 0 0 1 83.79 55c-4.48-.75-8.3-3.58-13.15-3-4.68.58-8.32 3.81-10.27 8-5 10.84.77 23.84 7.84 32.37 3.7 4.47 7.15 4 12.22 2.3 3.68-1.22 6.17-.52 9.75.38a16.21 16.21 0 0 0 6.26.69c4.93-.78 8.1-6.77 9.88-10.86 2.61-6 4.63-12.21 4.43-18.85-.16-5.5-3-11.23-8.4-13.28" transform="translate(-56 -38.88)"/><path class="cls-1" d="M71.75 57.88c-4.9 2-7.38 8.2-6.56 13.18.15.92 1.55.53 1.4-.39-.68-4.1 1.41-9.67 5.54-11.39.85-.35.48-1.76-.39-1.4m-5.58 16.18a.73.73 0 0 0 0 1.45.73.73 0 0 0 0-1.45m130.56-2.24c-.26 6.47-2.47 14.39-7.07 19.43a77.39 77.39 0 0 0 .42-15.67c-.55-8.19-7.17-17.18-3.26-25.32 4.94.22 6.63 5.37 8.13 9.45a30.87 30.87 0 0 1 1.78 12.11zM189 83.27c-3 6.83-12.94 11.52-19.87 12.91-3.52.7-9.31 1.12-12.2-1.64-3.86-3.68.77-8.31 2.65-11.71 3.34-6 3.08-13.26 5.65-19.61 3-7.33 11.63-12.69 19.09-8-.11 5.52 2.69 11.07 3.84 16.45a49 49 0 0 1 .84 11.56zm9.16-14.73a34.08 34.08 0 0 0-3.68-13.63c-1.7-3.52-3.59-5.94-7.55-6.08a24.26 24.26 0 0 0-.24-9.46.7.7 0 0 0-1.35.37c1 3.9.66 10.06-1.35 13.7-6.19-3.1-14.13-.42-18 5.2-2.83 4.13-3.78 9.21-4.71 14a33.52 33.52 0 0 1-2.39 8.39c-1.06 2.2-2.59 4.13-3.76 6.27-1.37 2.49-2.39 5.73.14 7.83 3.16 2.62 7.83 3.21 11.76 2.77a34.51 34.51 0 0 0 13.53-4.9c3.06-1.8 6.18-3.85 8.26-6.74a65.93 65.93 0 0 1-.87 6.76.71.71 0 0 0 1.17.68c6.79-5.82 9.33-16.67 9-25.19" transform="translate(-56 -38.88)"/><path class="cls-1" d="M173.16 57.51a12.86 12.86 0 0 0-6.65 10.84c0 .9 1.37.9 1.4 0a11.43 11.43 0 0 1 6-9.64c.79-.44.08-1.65-.71-1.21m2.8-1.33a.7.7 0 0 0 0 1.4.7.7 0 0 0 0-1.4m101.21 32.91c-3.67 2.37-8.48 2.66-12.74 2.4-9.37-.56-16.72-6.73-17.74-16.43-1.11-10.55 8.13-16.95 17.5-17.88a25.77 25.77 0 0 1 .17 2.95 1 1 0 0 1-.53-.3c-.5-.74-1.71 0-1.21.71a3.5 3.5 0 0 0 2.88 1.14 3.15 3.15 0 0 0 2.72-1.33c.52-.73-.69-1.43-1.21-.71a1.61 1.61 0 0 1-1.25.62c0-.82 0-1.63-.1-2.43a9.57 9.57 0 0 0 6.29-.28c8.71 2 14.73 11.11 12.87 19.88a18.78 18.78 0 0 1-7.65 11.66zm-1.41-39.94a9.27 9.27 0 0 1-2.61 6.08 7.81 7.81 0 0 1-7.64 1c.38-5.07 6.19-5.59 10.24-7.08zm-2 7.43c.1-.08.22-.14.32-.22 2-1.71 3.62-5.75 3-8.38a.71.71 0 0 0-1-.42c-3.86 1.74-9.11 2.12-11.1 5.73a26 26 0 0 0-4-8.55c-.52-.73-1.74 0-1.21.71A24.73 24.73 0 0 1 264 55.8c-7.7.76-14.62 4.23-17.62 11.83-2.77 7 0 16.38 5.86 21.12s15.2 5.31 22 3.2c7.32-2.26 12.13-10.24 12.34-17.66.22-7.8-5.52-15.3-12.9-17.71" transform="translate(-56 -38.88)"/><path class="cls-1" d="M254.46 63.9c-2.86 2.38-5 5.53-4.84 9.39 0 .9 1.44.9 1.4 0-.16-3.52 1.83-6.24 4.43-8.4.69-.58-.3-1.56-1-1m3.75-1.97a.7.7 0 0 0 0 1.4.7.7 0 0 0 0-1.4m12.39 5.42c-.18 0-.57-.12-.62-.35s.32-.37.54-.36c.35.16.69.85.08.71zm.26-2.08a.62.62 0 0 0-.34 0 1.8 1.8 0 0 0-1.94 1.62 1.94 1.94 0 0 0 1.8 1.88 1.6 1.6 0 0 0 2-1.32 2 2 0 0 0-1.47-2.14m-1.04 8.83c-.34 0-.84-.27-.9-.64s.31-.7.71-.69a1.06 1.06 0 0 1 .6.71c.06.32-.05.67-.41.62zm.42-2.81a1.05 1.05 0 0 0-.39-.08.74.74 0 0 0-.15 0 2.2 2.2 0 0 0-2.36 2.06 2.41 2.41 0 0 0 2.06 2.41 1.91 1.91 0 0 0 2.4-1.59 2.57 2.57 0 0 0-1.56-2.76m6.48.17c-.18 0-.57-.12-.62-.35s.32-.37.54-.36c.32.18.69.86.08.71zm.26-2.08a.62.62 0 0 0-.34 0 1.8 1.8 0 0 0-1.94 1.55 1.94 1.94 0 0 0 1.8 1.88 1.6 1.6 0 0 0 1.95-1.32 2 2 0 0 0-1.49-2.11m61.47-9.83c3.08-5.41 12.33-14.5 19.35-10.88 3.61 2.4 4.39 5.38 3.73 9.68A30.82 30.82 0 0 1 357.62 69a39.55 39.55 0 0 1-6.57 8.64c-2.82 2.73-7.85 6.45-12 5.05-9.18-3.06-3.72-17.55-.58-23.07zm20.36 10.07c2.47-4.28 4.74-9.64 4.29-14.68-.32-3.62-1.58-5.49-4.59-7.49-7.64-3.94-17.38 4.85-21 10.9-3.79 6.35-9 20.57 0 25.16 8.48 4.31 17.74-7.81 21.25-13.89" transform="translate(-56 -38.88)"/><path class="cls-1" d="M349.36 65.54c-.74 1.41-2.14 3.46-3.9 3-1.49-.38-1.22-1.79-.85-3a7.15 7.15 0 0 1 .77-1.81c.75-1.16 2.48-2.67 4-2.23 1.33.94.62 2.81-.02 4.04zm-4.62 4.53c2.42 1 4.87-2 5.83-3.82 1.06-2 1.64-4.63-.58-6h-.12c-4.51-1.63-10 7.75-5.09 9.86m7.89-12.35l1-1.5c.49-.76-.72-1.46-1.21-.71l-1 1.5c-.49.76.72 1.46 1.21.71M341.35 72.3l-.85 1.58c-.43.79.78 1.5 1.21.71l.85-1.58c.43-.79-.78-1.5-1.21-.71m11.04-4.47c-.74-.52-1.44.7-.71 1.21l.83.58c.74.52 1.44-.7.71-1.21l-.83-.58m-10.15-5.09c.74.52 1.44-.7.71-1.21l-1.61-1.12c-.74-.52-1.44.7-.71 1.21l1.61 1.13m12.08-1.17a7.79 7.79 0 0 1 1.3-.31c.89-.15.51-1.5-.37-1.35a7.49 7.49 0 0 0-1.3.31c-.84.3-.48 1.66.37 1.35m.99 2.26a11.9 11.9 0 0 0-1.49-.09.7.7 0 0 0 0 1.4 11.9 11.9 0 0 1 1.49.09.7.7 0 0 0 .7-.7.72.72 0 0 0-.7-.7m-10.07 9.22v1.32a.7.7 0 0 0 1.4 0v-1.32a.7.7 0 0 0-1.4 0m4.58-1.48c-.16-.89-1.5-.51-1.35.37a11 11 0 0 0 .3 1.27.7.7 0 0 0 1.35-.37 11.05 11.05 0 0 1-.3-1.27m-11.37-5.69l1.87.21a.71.71 0 0 0 .7-.7.72.72 0 0 0-.7-.7l-1.87-.21a.7.7 0 0 0-.7.7.72.72 0 0 0 .7.7m.89 2.52a8.23 8.23 0 0 0-1.37.39c-.84.3-.48 1.66.37 1.35a8.23 8.23 0 0 1 1.37-.39c.89-.16.51-1.51-.37-1.35m5.32-9.74c.38.82 1.58.11 1.21-.71l-.74-1.62c-.37-.82-1.58-.11-1.21.71l.74 1.62m4.45-1.59q0-.76-.08-1.51c0-.9-1.44-.9-1.4 0l.07 1.51c0 .9 1.44.9 1.4 0" transform="translate(-56 -38.88)"/><path class="cls-1" d="M379.2 73.28l.93.07a21.23 21.23 0 0 1-1.59 6.4.64.64 0 0 0-.49-.64 14.11 14.11 0 0 0-1.9-.4.72.72 0 0 0-.86.49.7.7 0 0 0 .49.86 14 14 0 0 1 1.9.4.62.62 0 0 0 .6-.13c-.16.36-.32.72-.5 1.08-2.81 5.53-7.6 9.82-13.53 11a7.68 7.68 0 0 1-.12-.8c-.07-.89-1.47-.9-1.4 0 0 .35.08.69.14 1-.42.05-.85.09-1.28.11A33 33 0 0 1 348 90.25a6.52 6.52 0 0 1 .66-1.26c.51-.74-.7-1.44-1.21-.71a7.48 7.48 0 0 0-.77 1.45c-1.79-.73-3.57-1.53-5.37-2.34a13.49 13.49 0 0 0 4.25-1.09c8.25-3.55 14.35-12.07 17.79-20.1 2-4.67 3.46-10.1 2.26-15.16a10.07 10.07 0 0 0-1.16-2.92c8.75 5.37 15.91 14 15.76 23.84l-1-.08c-.91-.1-.9 1.3-.01 1.4zM336 58.5a28.15 28.15 0 0 1 9.52-10.06c3.79-2.42 9.19-5.11 13.66-3.05 3.93 2.23 5.41 4.77 5.46 9.34.06 4.81-1.91 9.89-4.13 14.06a44.94 44.94 0 0 1-8.43 11.38c-3.58 3.41-9.53 7.46-14.68 5.62-10.78-3.85-5.31-20.28-1.4-27.29zm46.18 8.27a.71.71 0 0 0 .7-.7.71.71 0 0 0-.7-.7 4.17 4.17 0 0 0-1.51.18 28.88 28.88 0 0 0-6.32-11l.5-.37a.72.72 0 0 0 .25-1 .7.7 0 0 0-1-.25l-.75.56A42.82 42.82 0 0 0 359.62 44a.74.74 0 0 0-.22 0c-6.83-2.67-15.32 2.86-19.92 7.53-6.06 6.12-10.48 16.75-9.59 25.47.55 5.2 3.48 8.81 7.46 10a.58.58 0 0 0 .3.28 123 123 0 0 0 12.72 5.23l-.13.55c-.2.88 1.15 1.25 1.35.37l.12-.53a31.68 31.68 0 0 0 11.36 1.19h.17a.71.71 0 0 0 1.37-.19 18.19 18.19 0 0 0 8.2-4c.21.32.42.63.6 1 .43.79 1.64.09 1.21-.71-.23-.41-.5-.79-.75-1.19a25.15 25.15 0 0 0 5.13-6.88 23.14 23.14 0 0 0 2.54-8.71h.37a.7.7 0 0 0 0-1.4h-.3a21.69 21.69 0 0 0-.61-5.11 3.06 3.06 0 0 1 1.16-.13" transform="translate(-56 -38.88)"/><path class="cls-1" d="M354.58 86.76A7.53 7.53 0 0 0 354 88a8.16 8.16 0 0 0-.51 1.33c-.2.88 1.14 1.25 1.35.37a7.29 7.29 0 0 1 1-2.23c.5-.75-.71-1.45-1.21-.71m21.52-24.37a16.7 16.7 0 0 0-2.26.78c-.8.42-.09 1.63.71 1.21a14.37 14.37 0 0 1 1.93-.64c.84-.3.48-1.65-.37-1.35m-1.82 9.28l-1.24-.14a.71.71 0 0 0-.7.7.72.72 0 0 0 .7.7l1.24.14a.71.71 0 0 0 .7-.7.72.72 0 0 0-.7-.7m-3.42-6.07c-.43-.08-.84-.27-1.28-.35-.88-.17-1.26 1.18-.37 1.35.43.08.84.27 1.28.35.88.17 1.26-1.18.37-1.35m-9.71 13.55c-.66-.62-1.65.37-1 1a18.74 18.74 0 0 0 1.89 1.61c.73.52 1.43-.69.71-1.21a16.51 16.51 0 0 1-1.61-1.39m10.14 2.63a.72.72 0 0 0-1-.25.7.7 0 0 0-.25 1c.43.58.77 1.21 1.22 1.78a.7.7 0 0 0 1 0 .71.71 0 0 0 0-1c-.37-.47-.64-1-1-1.5M368.34 87a.71.71 0 0 0-.86-.49.72.72 0 0 0-.49.86c.08.54.33 1 .46 1.56.21.88 1.56.5 1.35-.37-.13-.53-.38-1-.46-1.56m-8.76 0a9.33 9.33 0 0 0-.33 1.67.71.71 0 0 0 .7.7.71.71 0 0 0 .7-.7 7.2 7.2 0 0 1 .28-1.3c.26-.86-1.09-1.23-1.35-.37m10.55-27.91a5.07 5.07 0 0 1 1.37-.16.7.7 0 0 0 0-1.4 6.53 6.53 0 0 0-1.75.21.7.7 0 0 0 .37 1.35m-1.91 15.21c-.65-.23-1.25-.59-1.89-.84-.84-.33-1.2 1-.37 1.35.65.25 1.24.61 1.89.84.85.3 1.22-1.06.37-1.35m100.84-25.64c-.74.4-3.18-.22-3.74-.31a.71.71 0 0 0-.88.67 22.72 22.72 0 0 1-.6 4.73.59.59 0 0 0 0 .26.53.53 0 0 0 .07.2l.07.09a.61.61 0 0 0 .06.08c4.38 3.88 3.94 10.21 3.62 15.64-.36 6.27-2.56 12.33-7.26 16.67-4.91 4.54-11.93 6.25-18.51 5.83-2.64-.17-5.78-.54-7.37-2.88-.65-1-1-2.43-2.16-3a1.27 1.27 0 0 0-.25-.08l1-2.08c.85.1 1.47-.27 2.51-1.19a7.21 7.21 0 0 1 3.87-2c2.81-.51 5.65-.54 8.32-1.7a11.42 11.42 0 0 0 1.55-.84l.29-.15a.65.65 0 0 0 .15-.13 12.18 12.18 0 0 0 4.23-5.4c2.36-5.67-.54-16.76 7.06-18.46.88-.2.51-1.55-.37-1.35-5.53 1.24-6.28 6.49-6.47 11.29s-1.23 10.11-5.4 12.89c-5.36 3-13 2.4-18.5.15-.83-.34-1.19 1-.37 1.35a26.34 26.34 0 0 0 6.83 1.74c-1.59 1-2.71 3-4.83 2a.76.76 0 0 0-.78.05c-2.37-.94-4.92-2.41-5.86-4.86-.44-1.15-.26-2.67-1.16-3.64a1.33 1.33 0 0 0-.43-.29.68.68 0 0 0 0-.08 3.28 3.28 0 0 1 .31-.28l.42-.41.6-.59h.17c1.13.07.73.21 1.83-.13a18.45 18.45 0 0 1 3.12-1.14c1.54-.2 3.27.4 4.79.62 3.5.5 6.94.26 9.81-2a16.22 16.22 0 0 0 4.48-6.13c1.89-4.13 2.53-10.57 8.55-10.19a.58.58 0 0 0 .59-.33 9.75 9.75 0 0 0 1.38-4.43c0-.33-.08-.8-.49-.86-1-.13-3.77.11-4.24-.17-1.34-.78.46-3.43 1-3.63 1.65-.65 4.34-.24 6.07-.21a51.74 51.74 0 0 1 6.45.36c1.2.17 1.15 0 1.46 1s-.04 2.83-.99 3.32zm2.38-3.39c-.15-2.67-2.4-2.36-4.66-2.53a51.76 51.76 0 0 0-10.4 0c-3 .4-2.48 2.86-2.7 5.35a.68.68 0 0 0 .35.6c1.19.63 2.93.5 4.32.58a7.71 7.71 0 0 1-.91 2.93c-4.17-.06-6.69 3.22-7.91 7-1.49 4.56-3.72 9.93-8.84 11.3-2.72.73-5.44 0-8.15-.36a9.41 9.41 0 0 0-2.73-.15c-1.81.27-3.32 2.1-5 .53a.71.71 0 0 0-1 0c-.85.87-1.39 2-2.24 2.83a.71.71 0 0 0 0 1c.77.77 1.51.89 2 2.11s.44 2.33 1.26 3.49a12.41 12.41 0 0 0 5.69 4.05 17.94 17.94 0 0 1-1 2.6.71.71 0 0 0 .25 1c.24.13.65.11.84.24 1.73 1.13 1.82 1.65 2.92 3.11a5.81 5.81 0 0 0 1.65 1.51c2.16 1.33 5 1.58 7.51 1.65 7.08.21 14.36-1.84 19.4-7 4.48-4.56 6.57-10.65 6.93-16.95.33-5.76.7-12.13-3.75-16.36a21 21 0 0 0 .49-3.86c1.48.29 3.46.66 4.63 0 1.39-.8 1.11-3.18 1-4.57" transform="translate(-56 -38.88)"/><path class="cls-1" d="M463 61.56c0 5.34-.79 11-3.34 15.76-1.66 3.09-3.24 5.46-6.37 7.28a26.69 26.69 0 0 1-12.6 3.58.7.7 0 0 0 0 1.4c7.53-.2 15.54-3.28 19.34-10a36.27 36.27 0 0 0 4.36-18 .7.7 0 0 0-1.4 0M99.74 175.56c-3 4.67-10.18 14.18-16.87 11.66S71.09 176.52 68 170.57c-4.05-7.72-7.57-19 2.05-24.29a.7.7 0 0 0 .16-.14c2.3 1.26 5.57.62 8.17-.51-.57 1.8-.33 3.76-.41 5.85a.71.71 0 0 0 .89.68 12.74 12.74 0 0 0 6.68-4.35c.81 2.13 2.57 3.43 4.78 4.59a.71.71 0 0 0 1-.42 12.76 12.76 0 0 0 .26-6.17 12.67 12.67 0 0 0 8.9.59.65.65 0 0 0 .09.07c10.51 5.35 3.9 21.64-.83 29.09zM83.8 140.65a.64.64 0 0 0 .59-.38v-.07a.73.73 0 0 0 .06-.23 27.54 27.54 0 0 0-.76-8.56l.78-.14q.92-.45.86.61a7.86 7.86 0 0 1 .57 2.48 26.15 26.15 0 0 1 .33 6 .59.59 0 0 0 .3.57.64.64 0 0 0 .4.14 22 22 0 0 1 9.18 1.81 42.76 42.76 0 0 0 4.89 1.85c-3.23 1.71-7 .83-10.27-.72a.71.71 0 0 0-1 1 8.67 8.67 0 0 1 .35 5.84c-1.87-1.06-3.44-2.33-3.7-4.72-.06-.61-1-1-1.3-.35a9.63 9.63 0 0 1-5.82 4.83c0-2.09-.25-4.39 1.24-6.07.5-.57-.14-1.55-.85-1.1-2.33 1.48-7.2 3.32-9.56 1.08A17.28 17.28 0 0 0 74 143a23.83 23.83 0 0 1 9.8-2.35zm18.23 5a10.14 10.14 0 0 0 1.22-.81.7.7 0 0 0-.31-1.17c-2.87-.59-5.39-1.92-8.1-3a20.17 20.17 0 0 0-7.15-1.12 25.94 25.94 0 0 0-1-8.14c-.68-2.3-1.86-1.72-4-1.32a.71.71 0 0 0-.49.86 26.39 26.39 0 0 1 .9 8.27 23.68 23.68 0 0 0-6.48 1.06c-2.63.86-4.94 2.69-7.76 2.83a.71.71 0 0 0-.6 1.05 4.88 4.88 0 0 0 .75 1c-14.82 8.45-1.7 30 6.6 38.35 3.66 3.7 7.92 6.82 13.15 4.47 7-3.14 12.16-10.64 15.17-17.39 3.41-7.66 6.65-19.87-1.92-25" transform="translate(-56 -38.88)"/><path class="cls-1" d="M71.79 153.8a.7.7 0 0 0-.9-.62.53.53 0 0 0-.48.5 12.75 12.75 0 0 0-.65 2.47 1.2 1.2 0 0 0 1.24 1.39c1.68-.26.9-2.71.77-3.73m8.36 1.61a.6.6 0 0 0-.67.49 15.08 15.08 0 0 0-.52 2.56 1.21 1.21 0 0 0 1.3 1.37c.72-.12 1-.91 1-1.55a11.13 11.13 0 0 0-.45-2.38.57.57 0 0 0-.68-.49m-7.16 7.73a.58.58 0 0 0-.68.49 16 16 0 0 0-.45 2.58 1.22 1.22 0 0 0 1.32 1.35c.72-.13 1-.93 1-1.57a10.72 10.72 0 0 0-.52-2.37.59.59 0 0 0-.67-.49m18.65-4.69a1.49 1.49 0 0 0 .86-1.66 11 11 0 0 0-.64-2.21.54.54 0 0 0-.49-.5.7.7 0 0 0-.89.62 13.53 13.53 0 0 0-.26 2.5 1.21 1.21 0 0 0 1.43 1.22m-6.33 5.81a.58.58 0 0 0-.68.49 16.17 16.17 0 0 0-.45 2.58 1.22 1.22 0 0 0 1.32 1.35c.72-.13 1-.93 1-1.57a10.73 10.73 0 0 0-.52-2.37.59.59 0 0 0-.67-.49m14.72-11.7a.58.58 0 0 0-.68.49 16 16 0 0 0-.45 2.58 1.22 1.22 0 0 0 1.32 1.35c.72-.13 1-.93 1-1.57a10.72 10.72 0 0 0-.52-2.37.59.59 0 0 0-.67-.49m-15.19 26.66a.58.58 0 0 0-.68.49 16.09 16.09 0 0 0-.45 2.58A1.22 1.22 0 0 0 85 183.6c.72-.13 1-.93 1-1.57a10.7 10.7 0 0 0-.52-2.37.59.59 0 0 0-.67-.49m7.42-7.17a.58.58 0 0 0-.68.49 16 16 0 0 0-.45 2.58 1.22 1.22 0 0 0 1.32 1.35c.72-.13 1-.93 1-1.57a10.7 10.7 0 0 0-.52-2.37.59.59 0 0 0-.67-.49m-14.08-.57a.58.58 0 0 0-.68.49 16.17 16.17 0 0 0-.45 2.58 1.22 1.22 0 0 0 1.32 1.35c.72-.13 1-.93 1-1.57a10.73 10.73 0 0 0-.52-2.37.59.59 0 0 0-.67-.49m18.06-8.26a.58.58 0 0 0-.68.49 16.22 16.22 0 0 0-.45 2.58 1.22 1.22 0 0 0 1.32 1.35c.72-.13 1-.93 1-1.57a10.75 10.75 0 0 0-.52-2.37.59.59 0 0 0-.67-.49M195.55 181c-1.18 4-4.33 5.72-8.34 5.68-4.21-.05-7.73-2.52-7.89-7-.08-2.12.66-5.06 2.65-6.22a9.72 9.72 0 0 1 5-.85c-.06 1.5-.18 3-.33 4.38a2.25 2.25 0 0 1-1.4-1.13c-.32-.83-1.68-.47-1.35.37a3.92 3.92 0 0 0 2.73 2.22 5.38 5.38 0 0 0 4.37-.8.7.7 0 0 0-.71-1.21 4.91 4.91 0 0 1-2.26.8c.17-1.45.28-3 .35-4.5 4.46.71 8.82 2.81 7.18 8.26zM186 131a39.19 39.19 0 0 1 4.08-.1 8 8 0 0 0 1.52 0 2.25 2.25 0 0 1 .39 0 12.22 12.22 0 0 1-4.06 6.92c-3.33 2.45-7 2.15-10.61 1-.05-4.82 4.24-7.41 8.68-7.82zm6.1-.08c.3 0 .11.21 0 0zm-20.9 50.48c-2.13 4.52-7.22 5.38-11.38 3.35-4-1.93-5.82-6.1-3.7-10.2s6.06-4.25 9.91-2.43c-.82 1.24-1.66 2.45-2.51 3.65a2.29 2.29 0 0 1-.79-1.66c0-.9-1.37-.9-1.4 0a4 4 0 0 0 1.74 3.11 5.28 5.28 0 0 0 4.14.91c.89-.09.9-1.49 0-1.4a5.09 5.09 0 0 1-2.54-.16q1.3-1.84 2.56-3.73c3.04 1.94 5.84 4.64 3.99 8.57zm17.24-10a44.31 44.31 0 0 0-2.22-15.72c-1.83-5-4.27-10.59-7.62-15 3.76.87 7.52.61 10.74-2.12 1.85-1.57 4.23-5.59 4.12-8.13a.72.72 0 0 0-.51-.68c-2.69-.82-6.91-.41-9.59.3-4.05 1.08-7.19 4-7.43 8.14a.78.78 0 0 0-.44.83c2.16 11.68-2.53 22.38-8.69 32-4.8-2.29-9.2-2.22-11.88 2.91-2.48 4.73-.46 9.8 4.21 12.12 4.89 2.43 10.17 1.44 13-3.42 2.76-4.69-.36-8.38-4.17-10.87 5.93-9.25 10.42-19.49 9.21-30.62 3.53 4.48 6.15 10.45 7.91 15.61a43.73 43.73 0 0 1 1.94 14.59c-5.4 0-9.25 2.48-9.13 8.46.11 5.18 4.35 8.37 9.29 8.39 5.13 0 9.05-2.67 10-7.88 1-5.9-3.85-8.13-8.72-8.85" transform="translate(-56 -38.88)"/><path class="cls-1" d="M192.07 182.31a6.48 6.48 0 0 1-3 2.26c-.84.31-.48 1.66.37 1.35a8.14 8.14 0 0 0 3.83-2.9c.53-.73-.68-1.43-1.21-.71m1.37-1.93a.7.7 0 0 0 0 1.4.7.7 0 0 0 0-1.4m-26.08 1.71c-.95 1-2.77 1.39-4.11 1.56-.88.11-.89 1.51 0 1.4 1.7-.22 3.88-.64 5.1-2 .61-.66-.38-1.66-1-1m1.66-.27a.7.7 0 0 0 0-1.4.7.7 0 0 0 0 1.4m110-34.65a1.29 1.29 0 0 1-.62.19.71.71 0 0 1-.66-.45 2.9 2.9 0 0 1 .29-2.49 3.29 3.29 0 0 1 1.63-1.12h.09v.09c.45 1.17.4 3.15-.73 3.78zm-6.59-8.84a2.65 2.65 0 0 1-.58.72l-.06.06-.07-.06a2.49 2.49 0 0 1-1-1.95 1.23 1.23 0 0 1 1.06-1.26 1 1 0 0 1 .63.25c.86.66.12 2.09.03 2.25zM260.64 152c-2.25 0-4.46-1.25-4.39-3.73s1.91-3.89 4.27-3.93c4.21.41 4.83 7.66.12 7.66zm4.12-1a4.43 4.43 0 0 0 .55 1.13 6.84 6.84 0 0 0-1.75.27 4.76 4.76 0 0 0 1.2-1.4zm5.44-5.56c4.22.38 4.83 7.59.12 7.66-2.25 0-4.46-1.25-4.39-3.73s1.91-3.87 4.27-3.91zm4.51 15.74c-2.25 0-4.46-1.25-4.39-3.73s1.91-3.89 4.27-3.93c4.21.4 4.83 7.61.12 7.68zm-4.57 8c-2.25 0-4.46-1.24-4.39-3.73s1.91-3.88 4.27-3.93c4.21.48 4.82 7.65.12 7.72zm-4.57 8c-2.25 0-4.46-1.25-4.39-3.73s1.91-3.88 4.27-3.93c4.21.48 4.82 7.67.12 7.74zm-5.49 7.82c-2.25 0-4.46-1.24-4.39-3.73s1.91-3.89 4.27-3.93c4.21.39 4.83 7.6.12 7.66zm-9.16-11.75c.07-2.51 1.91-3.88 4.27-3.92 4.22.38 4.83 7.58.12 7.66-2.25.01-4.46-1.25-4.39-3.74zm-4.57-8.85c.07-2.51 1.91-3.89 4.27-3.93 4.22.38 4.83 7.59.12 7.66-2.25.03-4.47-1.24-4.39-3.73zm-4.67-9c.29-2.29 2-3.4 4.21-3.49 4.38.3 4.73 7.88-.15 7.64-2.38-.07-4.39-1.55-4.06-4.1zm9.57-11.2c4.22.38 4.83 7.59.12 7.66-2.25 0-4.46-1.25-4.39-3.73s1.91-3.84 4.27-3.88zm9.13 10.58a5.9 5.9 0 0 0-.67-1.47 7.41 7.41 0 0 0 .93.07 4.71 4.71 0 0 0 1.1-.13 4.92 4.92 0 0 0-1.37 1.58zm4.94-1.28c4.22.38 4.83 7.59.12 7.66-2.25 0-4.46-1.25-4.39-3.73s1.95-3.84 4.27-3.88zm4.2 1.49a5.49 5.49 0 0 0-.33-.61c.21 0 .43.06.64.07a5 5 0 0 0-.31.55zm.09 5.07l.07.1h-.13zm-5 7a4.46 4.46 0 0 0 .54 1.14 6.92 6.92 0 0 0-1.25.2 4.75 4.75 0 0 0 .66-1.31zm-9.84.25a4.45 4.45 0 0 0 .34.59 6.89 6.89 0 0 0-.86.08 4.75 4.75 0 0 0 .47-.63zm1-5.78a4.89 4.89 0 0 0-.7.92 5.91 5.91 0 0 0-.5-1.06 7.37 7.37 0 0 0 1.17.18zm-5.25-6.8a6 6 0 0 0-.59-1.62 7.45 7.45 0 0 0 1.32.15 5.07 5.07 0 0 0-.76 1.5zm4.83-3.59c.06-.1.13-.19.18-.3l.18.26zm4.91 8.73h-.63a4.86 4.86 0 0 0 .38-.52 4.29 4.29 0 0 0 .22.55zm-8.64-3.46c.07-2.51 1.91-3.89 4.27-3.93 4.22.38 4.83 7.59.12 7.66-2.28.07-4.49-1.21-4.42-3.69zm8.49 12.47c-2.25 0-4.46-1.25-4.39-3.73s1.91-3.89 4.27-3.93c4.18.41 4.8 7.62.09 7.69zm4.49-4.88a6.32 6.32 0 0 0-.58-1.53 7.39 7.39 0 0 0 1.21.14 5.09 5.09 0 0 0-.63 1.39zm-14.85-4.82a4.85 4.85 0 0 0 .62-1.27 4.45 4.45 0 0 0 .54 1.24l-.29-.05a7 7 0 0 0-.87.06zm10.15 13.27a6.33 6.33 0 0 0-.82-2.19 7.47 7.47 0 0 0 1 .07 4.79 4.79 0 0 0 .86-.08 5.06 5.06 0 0 0-1.04 2.18zm.1 3.55c-.19 0-.36 0-.54.05a4.73 4.73 0 0 0 .49-1.22 4.45 4.45 0 0 0 .49 1.24c-.2-.07-.33-.07-.44-.07zm30-37.25a.61.61 0 0 0-.48-.27.87.87 0 0 0-.6 1.39 2.17 2.17 0 0 1 .23 2.29 1.94 1.94 0 0 1-1.76 1.13h-.22a9.53 9.53 0 0 1-2.28-.66l-.52-.19a10.86 10.86 0 0 0-3.64-.86h-.21a3.91 3.91 0 0 0-1.75-1.19 6 6 0 0 0-1.93-.27h-1.8a6.36 6.36 0 0 1-1.63-.18h-.15l.1-.12a4.46 4.46 0 0 0 .89-1.75 2.81 2.81 0 0 0-.36-2.51 2.7 2.7 0 0 0-2.15-1 2.53 2.53 0 0 0-2 .84 2.83 2.83 0 0 0-.5 2.37 4.15 4.15 0 0 0 .94 2l.11.13h-.16a9.82 9.82 0 0 1-1.55.19h-.34a6.83 6.83 0 0 1-4.36-1.8l.05-.1a11.93 11.93 0 0 0 1-5.84c0-.9-1.44-.9-1.4 0a11.62 11.62 0 0 1-1.55 6.53 12.07 12.07 0 0 0-1.39 4.17h-.05a5.57 5.57 0 0 0-5 2.84 4.91 4.91 0 0 0-4.23-3c-3.13.05-5.59 2-5.67 5.33a4.72 4.72 0 0 0 .57 2.41h-.26c-3 .13-5.25 1.71-5.62 4.8-.41 3.43 2.3 5.49 5.47 5.64h.47a5.29 5.29 0 0 0-1.26 3.41c-.07 3.31 2.76 5.12 5.79 5.13h.34a5.23 5.23 0 0 0-1.56 3.74c-.07 3.25 2.66 5.05 5.64 5.12a5.44 5.44 0 0 0-.87 2.9c-.07 3.31 2.76 5.12 5.79 5.13a4.73 4.73 0 0 0 4.71-5.2 6.88 6.88 0 0 0-.81-2.72 7.43 7.43 0 0 0 1.59.18 4.73 4.73 0 0 0 4.71-5.2 6.82 6.82 0 0 0-.88-2.87 7.26 7.26 0 0 0 .74 0 4.73 4.73 0 0 0 4.71-5.2 6.81 6.81 0 0 0-.89-2.88 7.47 7.47 0 0 0 .75 0 4.73 4.73 0 0 0 4.71-5.2c-.27-2.87-1.9-5-4.84-5.26h-.17a4.75 4.75 0 0 0 .62-2.85c-.27-2.87-1.9-5-4.84-5.26a5.56 5.56 0 0 0-5.07 2.91 5 5 0 0 0-3.2-3.68 11.7 11.7 0 0 1 1.26-3.67 8.32 8.32 0 0 0 5.21 1.94 9.57 9.57 0 0 0 3.38-.63 6.1 6.1 0 0 0 .7.32 6.82 6.82 0 0 0 2.52.42h2a3.8 3.8 0 0 1 1.62.29l.18.08-.18.09a4.38 4.38 0 0 0-2.59 3.72 3.57 3.57 0 0 0 .9 2.5 2 2 0 0 0 1.49.62h.07a2.74 2.74 0 0 0 2.19-1.12 5.76 5.76 0 0 0 .78-4.51v-.14h.14a5.57 5.57 0 0 1 .69.13 15.79 15.79 0 0 1 1.8.65 9.72 9.72 0 0 0 3.44.95 3 3 0 0 0 1.15-.21 3.58 3.58 0 0 0 2.17-2.42 4.12 4.12 0 0 0-.76-3.55" transform="translate(-56 -38.88)"/><path class="cls-1" d="M249.79 149.6a1.75 1.75 0 0 1-.26-2c.54-.72-.68-1.42-1.21-.71a3.06 3.06 0 0 0 .26 3.43c.53.72 1.75 0 1.21-.71m-.13-3.12a.7.7 0 0 0 0-1.4.7.7 0 0 0 0 1.4m130.92-6.4c-.31 2.14-1.07 4-1.16 6.22-.2 5 1.15 9.61.25 14.66-.87 4.9-2.7 10.61-6.29 14.22a29.09 29.09 0 0 1-15.71 7.72c-4.5.66-8.46-.27-12.85-1.1a9.17 9.17 0 0 0-4.41.27 15 15 0 0 1-3.82.93c-2.94 0-4.15-2.52-3.81-5.1.3-2.25 1.4-4.08 1.06-6.4-.45-3.08-1.52-5.79-1.44-9 .16-6.39 2-13.73 6.22-18.7 4.59-5 9.63-8.3 16.38-9.5a24.13 24.13 0 0 1 10.33.62c2.27.55 4.69 1.19 7 .71 1.69-.35 2.49-.91 4.36-.66 2.84.37 4.31 2.16 3.89 5.11zM379.1 134c-3.21-1.76-5.79.5-9.09.4-4.19-.13-7.95-2.06-12.23-1.81-8.22.47-14.68 4.33-20.15 10.25-3.74 4.39-5.63 10.39-6.35 16a25.53 25.53 0 0 0 .26 9.16c.43 1.8 1.23 3.69.93 5.57-.26 1.62-1.06 3.13-1.17 4.79-.33 4.65 3.4 6.61 7.5 5.62a19 19 0 0 1 4.26-1 19.33 19.33 0 0 1 4.1.85 30.89 30.89 0 0 0 7.67.74 30.44 30.44 0 0 0 16.55-6c4.57-3.27 7-7.84 8.65-13.17a34.77 34.77 0 0 0 1.53-8.82c.1-3.09-.75-6.06-.78-9.13 0-4.66 3.78-10.46-1.68-13.47" transform="translate(-56 -38.88)"/><path class="cls-1" d="M353.41 139.61c-4.05 1.24-7 2.87-9.68 6.25a23.41 23.41 0 0 0-5.12 10.31c-.16.88 1.19 1.26 1.35.37a21.62 21.62 0 0 1 4.5-9.33 17.06 17.06 0 0 1 9.32-6.25c.86-.26.49-1.61-.37-1.35m3.52-.56a.7.7 0 0 0 0 1.4.7.7 0 0 0 0-1.4M373.12 159a.7.7 0 0 0 0 1.4.7.7 0 0 0 0-1.4m-3.64 3.25a.7.7 0 0 0 0 1.4.7.7 0 0 0 0-1.4m5.87 2.24a.7.7 0 0 0 0 1.4.7.7 0 0 0 0-1.4m-4.86 2.19h-.12a.7.7 0 0 0 0 1.4h.12a.7.7 0 0 0 0-1.4m-2.6-10.61a.7.7 0 0 0 0 1.4.7.7 0 0 0 0-1.4m-4.41 10.48l-.12.24c-.41.8.8 1.51 1.21.71l.12-.24c.41-.8-.8-1.51-1.21-.71m.52-4.17a.7.7 0 0 0 0-1.4.7.7 0 0 0 0 1.4m111.72-9.92a19.29 19.29 0 0 1-3.46 7.48c-5.79 7.81-13.12 12.36-22.85 12.9-8.13.46-16.1-.7-22.44-6.24-6.15-5.37-8.71-13.43-8.33-21.44h1.52c.33 6.47 1.63 13.34 6.66 17.89a32 32 0 0 0 8.95 6 36.94 36.94 0 0 0 9.59 1.84c8.07.71 14.08-2.07 20.22-7s9.13-10.89 8.91-18.79a3.64 3.64 0 0 1 1.66.07c.21.13 0 1.41 0 2.3a21.55 21.55 0 0 1-.43 4.99zm-2.62-7.29c.19 7.48-2.7 13.05-8.5 17.73-2.53 2-5.35 4.33-8.43 5.48a25.42 25.42 0 0 1-10.8 1.13c-3-.28-7.13-.77-9.85-2.11a36.65 36.65 0 0 1-7.31-5c-5-4.32-6.32-10.93-6.64-17.25h51.53zm4.21-.7a.72.72 0 0 0-.7-.7H418a.63.63 0 0 0-.6.38v.05a.68.68 0 0 0-.06.22c-.64 9.27 2.6 18.52 10.1 24.27s17.71 6.54 26.87 5a27.48 27.48 0 0 0 14.39-7.53c6.34-6 9.63-12.9 8.68-21.72" transform="translate(-56 -38.88)"/><path class="cls-1" d="M447.46 157.81c.72-.13 1-.93 1-1.57a10.69 10.69 0 0 0-.52-2.37.59.59 0 0 0-.67-.49.58.58 0 0 0-.68.49 16.15 16.15 0 0 0-.45 2.58 1.22 1.22 0 0 0 1.32 1.35m8.22-8.57a12 12 0 0 0 2 1.83 1.18 1.18 0 0 0 1.79-.52c.23-.75-.41-1.4-1-1.73a15.29 15.29 0 0 0-2-.72.56.56 0 0 0-.77.35.62.62 0 0 0 .09.82m-2.79 5.99a1.21 1.21 0 0 0 1.79.53 1.49 1.49 0 0 0 .14-1.84 10 10 0 0 0-1.51-1.83.57.57 0 0 0-.85-.08.62.62 0 0 0-.32.76 13.07 13.07 0 0 0 .79 2.5M437.21 151a9.53 9.53 0 0 0 1.86-1.43.7.7 0 0 0 .1-1.07.54.54 0 0 0-.7-.18 18.23 18.23 0 0 0-2.31.64 1.25 1.25 0 0 0-.8 1.76 1.42 1.42 0 0 0 1.83.3m3.08 4.9c.75.23 1.4-.4 1.75-1a14.38 14.38 0 0 0 .75-2v-.08a.5.5 0 0 0 0-.12.59.59 0 0 0 0-.09.75.75 0 0 0-.51-.65h-.35l-.15.06h-.06a.69.69 0 0 0-.12.08l-1 1a5.22 5.22 0 0 0-.86.94 1.18 1.18 0 0 0 .5 1.79m19.57 6.73c3.81-2.56 7.3-5.63 8.56-10.21A.7.7 0 0 0 467 152c-1.16 4.21-4.42 7-7.92 9.37-.74.5 0 1.71.71 1.21m7.85-12.43a.7.7 0 0 0 1-1l-.07-.06a.7.7 0 0 0-1 1l.07.06M192.23 265.16c-3.93 3.85-11 6-16.43 5.82a28 28 0 0 1-14.21-3.4c-6.09-3.36-7.68-11.26-5.53-17.57a18.77 18.77 0 0 1 5.75-8.17c2.41-2 5.63-3.08 7.89-5.25a13.32 13.32 0 0 0 3.56-8.4 9.57 9.57 0 0 1 .91 4.47.7.7 0 0 0 1.4 0 12.64 12.64 0 0 0-.38-3.28 10.47 10.47 0 0 1 1.89-3.73c-.29 3.31-.08 6.78 2.12 9.42 3.63 4.34 9.58 5.66 13 10.47 3.73 5.32 5.12 14.63.03 19.62zm4.48-11.53a20 20 0 0 0-8.79-14.15c-2.48-1.71-5.56-2.88-7.57-5.22-2.4-2.8-2.15-6.84-1.68-10.26a.66.66 0 0 0-.42-.89.6.6 0 0 0-.84.19 10.72 10.72 0 0 0-3 4.08 8.83 8.83 0 0 0-1.37-1.91.55.55 0 0 0-.32-.26h-.16a.7.7 0 0 0-.64.3v.05a.77.77 0 0 0-.08.18v.07a.63.63 0 0 0 0 .22v.06a11.23 11.23 0 0 1-4.09 10.32c-2.69 1.9-5.64 3.21-8 5.54a19 19 0 0 0-5.75 16.13c.66 5 3.11 8.83 7.66 11.1a30.48 30.48 0 0 0 12.06 3.19 23 23 0 0 1-3.21 2.35.7.7 0 0 0 .71 1.21 24.59 24.59 0 0 0 3.3-2.41v2.29a.7.7 0 0 0 1.4 0v-2a10.47 10.47 0 0 0 3.41 1.72c.85.29 1.22-1.06.37-1.35a7.43 7.43 0 0 1-3.23-1.78 27.25 27.25 0 0 0 14.68-4.58c4.75-3.19 6.19-8.65 5.57-14.16" transform="translate(-56 -38.88)"/><path class="cls-1" d="M166.51 240.86c-5 7.12-7 20.07-1 27.26.58.69 1.56-.3 1-1-5.58-6.69-3.34-19 1.27-25.56.52-.74-.69-1.44-1.21-.71m16.43.37c5.05 7 6.78 19.84.12 26.34-.65.63.34 1.62 1 1 7.13-7 5.55-20.5.1-28-.52-.72-1.74 0-1.21.71m-10.95-1.16a56 56 0 0 0-1.8 14.31c-.07 4.61-.12 9.59 1.36 14 .28.85 1.64.49 1.35-.37-1.44-4.3-1.37-9.14-1.31-13.63a54.36 54.36 0 0 1 1.75-13.94.7.7 0 0 0-1.35-.37m6.52-.42a.7.7 0 0 0-1.35.37 53.15 53.15 0 0 1 1.77 14.49c0 4.67 0 9.49-1.72 13.89-.33.84 1 1.2 1.35.37 1.77-4.5 1.82-9.48 1.77-14.26a54.72 54.72 0 0 0-1.83-14.86m112.18-4.29c-.15 1.19-2.31 3.18-3.5 2.1a.71.71 0 0 0-1.19.5c-.2 2.2-2.9 1.6-3.93 1-1.43-.88-1.68-2.08-1.48-3.81a.55.55 0 0 0-.19-.52.59.59 0 0 0-.51-.18c-2.61.22-5.85-2.91-5.11-5.41.65-2.18 2.24-2.64 4-1.38.54.4 1.13-.26 1-.79-.66-3.54 4.38-3.43 6-1.95s1.56 3.94.45 5.87a.71.71 0 0 0 .6 1.05 4.88 4.88 0 0 1 2.7.73 3.2 3.2 0 0 1 1.16 2.79zm-14.92 6.55l-.65-.71 2.74-2.81c.63-.65-.36-1.64-1-1l-2.74 2.81q-.54-.53-1.1-1c1.3-1.3 2.35-2.83 3.69-4.09a5.81 5.81 0 0 0 2.42.73 5.19 5.19 0 0 0 .6 2.86h-.07a49.79 49.79 0 0 0-3.89 3.21zm-1.26 11.73a27.61 27.61 0 0 1-1.8 2.1l-1.94-2.22c-.59-.68-1.58.31-1 1l1.94 2.23q-.46.45-.93.87a.76.76 0 0 0-.15-.26l-1-1.19c-.6-.68-1.58.32-1 1l1 1.19a.67.67 0 0 0 .17.13c-1.4 1.19-2.87 2.31-4.37 3.39-2.15 1.55-4.32 3.1-6.5 4.62a10.77 10.77 0 0 1-1.49-1.71c-.51-.74-1.72 0-1.21.71a12.64 12.64 0 0 0 1.53 1.81c-.56.38-1.11.78-1.67 1.16-2.54 1.7-9.94 6.17-12.65 3.09-1.55-1.77-1-4.57.07-7.21a9.17 9.17 0 0 0 1.69 1.73.72.72 0 0 0 1 0 .71.71 0 0 0 0-1 8.27 8.27 0 0 1-2-2.21 36.83 36.83 0 0 1 2.34-4c2-2.91 4-5.75 6.07-8.6a24.73 24.73 0 0 0 2.13 2.48.7.7 0 0 0 1-1 22.88 22.88 0 0 1-2.26-2.64q.57-.79 1.16-1.56a15.11 15.11 0 0 1 2.69 2.74c.5.74 1.72 0 1.21-.71a17.59 17.59 0 0 0-3-3.14 36.34 36.34 0 0 1 5-5.3c2.14-1.79 5.19-4 8.19-3.14 1.87.53 3.42 2.2 4.76 3.53s3 2.9 3.53 4.76c.72 2.67-.96 5.33-2.51 7.35zm13.32-23.17c1.22-3.13.26-7.06-3.45-8.1a5 5 0 0 0-6 3.46c-2.2-.94-4.33.23-5 2.8a5.77 5.77 0 0 0 2.13 5.65c-1.29 1.26-2.32 2.76-3.62 4a7.39 7.39 0 0 0-7.53-1.28c-4.62 1.74-8.24 6.17-11.11 10-3.36 4.44-7.09 9.15-9.72 14.07-1.4 2.61-4 9-1.45 11.72s9.29 0 11.82-1.35c4.93-2.64 9.62-6.36 14.07-9.72 3.8-2.87 8.22-6.5 10-11.12 1.14-3 .31-5.41-1.33-7.6a46.12 46.12 0 0 1 3.72-3.07.74.74 0 0 0 .21-.24 5.5 5.5 0 0 0 2.57 1.09c1.8.32 3.32-.21 3.94-1.69 2.46 1.27 4.83-1.12 5.06-4.09.19-2.53-2-4.17-4.34-4.52" transform="translate(-56 -38.88)"/><path class="cls-1" d="M268.24 240.46c-3.08-.73-5.81 1.86-7.72 4-.61.66.38 1.66 1 1 1.51-1.65 3.89-4.18 6.36-3.6.88.21 1.25-1.14.37-1.35m2.3 1.19a.7.7 0 0 0 0 1.4.7.7 0 0 0 0-1.4m108.72 1.3c-.37 4.73-3.2 9.72-7.65 11.48-3.58-3.24-9.64-4-14.31-4.18-5.41-.17-12.09.94-16.73 3.92-4.22-1.25-6.16-5.12-6.89-9.22-2-11 7.54-18.77 17.67-19.7 5.88-.54 12-.5 17.27 2.51s11.15 8.71 10.64 15.19zm-22.75 11.12c-4.73-.05-9.25 1.21-13.92.52 4.1-2.12 9.45-2.94 13.85-3 4.17 0 10.07.65 13.56 3.28-4.78 1.15-8.73-.41-13.49-.75zm9.56 16.42c-1 2.21-3.67 2.86-5.77 3h-2.89c-2.08 0-4.4.29-6.42-.3-3.36-1-3.66-4.25-3.06-7.2.72-3.48 2.1-6.24 1.69-9.88a.68.68 0 0 0 0-.15 63.06 63.06 0 0 1 6.93-.5c2.25.16 4.36.9 6.57 1.22a16.25 16.25 0 0 0 1.76 7.38c.68 1.69 2.03 4.67 1.2 6.48zm13.6-33.22c-2.09-4.68-6.41-8.59-10.85-11-4.78-2.59-10-2.83-15.33-2.58-4.77.22-9.65 1-13.6 3.87-6 4.34-9.19 11.52-7.36 18.79.88 3.49 2.53 7.13 6 8.63 3.19 1.37 6.42 1.37 9.68 1.1.55 4.9-3.8 10.75-1.52 15.44 1.91 3.92 7.12 3.39 10.7 3.35 4.06 0 9.58.17 10.15-5.06.51-4.66-3.15-8.37-3.09-13a23.13 23.13 0 0 0 5.92-.56c3.92-.85 6.28-3.1 8.14-6.55 2.05-3.82 3-8.32 1.14-12.42" transform="translate(-56 -38.88)"/><path class="cls-1" d="M343.26 229.76a16.8 16.8 0 0 0-6.94 10.52c-.18.88 1.17 1.26 1.35.37A15.38 15.38 0 0 1 344 231c.73-.51 0-1.73-.71-1.21m2.58-1.6a.7.7 0 0 0 0 1.4.7.7 0 0 0 0-1.4m125.27 36.1c-5.64 10.85-19.09 14.55-30.4 12.1-10.91-2.36-21.21-13.22-20-25 .6-6 3.9-12.44 9.08-15.62 3.07-1.88 6.78-2.5 10.28-3.07a.63.63 0 0 0 .21-.08h.36a19.78 19.78 0 0 1-4.34 1.87c-.72.24-2.08.36-2.66.93a.71.71 0 0 0 .31 1.17c1.61.3 3.23 1 4.89 1s3-1.19 4.61-1.45a9.6 9.6 0 0 1-.9 1.55 10.39 10.39 0 0 1-1.36 1.8.71.71 0 0 0 .5 1.19 11.11 11.11 0 0 0 3.61-.68 3.43 3.43 0 0 0 1.48-1.15 13.17 13.17 0 0 1 1.78-1.88 7.75 7.75 0 0 0 3.22 2.18c1.22.45 2.54.53 3.75 1 .69.26 1.13-.7.68-1.17-.61-.63-1.34-1.13-1.94-1.76a4.18 4.18 0 0 1-1-2.4 21.39 21.39 0 0 0 4.54.15 7.52 7.52 0 0 0 3.54-1.91c6.44 2.08 10.08 6.37 11.76 12.92a25.66 25.66 0 0 1-2 18.31zm-36.63-27.76c-.09.08-.07 0 0 0zm.32-7c3.58.39 7.75-.24 10.65 1.64a10.07 10.07 0 0 1 0 1.54c-.09.9 1.31.89 1.4 0a18 18 0 0 0-1.24-7c-.31-.94-.81-1.9-1-2.86 0-.08-.16-.33-.23-.51a1.9 1.9 0 0 0 1 0c1.24 3.43 1.66 7.08 2.79 10.54.28.85 1.63.49 1.35-.37-.17-.53-.33-1.07-.47-1.61 1-1.28 2.46-1.51 3.73-2.43a33.31 33.31 0 0 0 2.65-2.54c.14.77-.59 1.6-1 2.14-.85 1-1.75 2-2.54 3.09a.56.56 0 0 0 0 .76.62.62 0 0 0 .76.31 10.51 10.51 0 0 1 5.61.07 9.57 9.57 0 0 0 1.54.19 4.86 4.86 0 0 1-2.7 1.12c-1.52.06-3.09-.27-4.64-.23a.66.66 0 0 0-.65.55.79.79 0 0 0 0 .1.73.73 0 0 0 0 .1.69.69 0 0 0 0 .13 6.61 6.61 0 0 0 1.18 3.49c.07.09.15.16.22.25a6.24 6.24 0 0 1-3.91-2.38.7.7 0 0 0-.51-.3.69.69 0 0 0-.59.16 16.29 16.29 0 0 0-1.87 1.68c-.49.56-.72 1.19-1.42 1.52a5.74 5.74 0 0 1-1.63.46c.32-.47.61-.95.91-1.47.55-1 1-1.29.72-2.47a.62.62 0 0 0-.6-.5h-.08c-1.84-.06-2.92 1.06-4.63 1.42a6.29 6.29 0 0 1-2.91-.25c.53-.17 1.06-.35 1.57-.55a14.54 14.54 0 0 0 4.67-2.62.71.71 0 0 0-.31-1.17c-2.85-.66-5.65-.28-7.82-1.96zM473 241.31a17 17 0 0 0-10.5-9.34.7.7 0 0 0-.72-1.11c-1.68.55-3.09.05-4.76-.26a9.55 9.55 0 0 0-2.76-.1c1.65-1.81 3.77-4.16 1.87-6.13a.7.7 0 0 0-.85-.11c-1.41 1-2.39 2.64-3.94 3.48a15.15 15.15 0 0 0-2.68 1.6 57.39 57.39 0 0 0-2.14-8 .72.72 0 0 0-.86-.49c-2.2.46-3 .7-2.17 2.82a37.15 37.15 0 0 1 1.82 5.78c-3.61-1.68-8.41-.56-12.15-1.66a.71.71 0 0 0-.79 1 8.67 8.67 0 0 0 3.57 3c.15.07.31.13.47.18-7 1.72-12.28 5.23-15.28 12.66-4 9.84-.39 19.65 7.06 26.77 7.21 6.88 18.42 8.72 27.84 6 9.75-2.79 17.06-9.78 19-19.92a28 28 0 0 0-2-16.24" transform="translate(-56 -38.88)"/><path class="cls-1" d="M427.93 243.38c-1.77 2.12-3.37 4.26-3.47 7.12a35.3 35.3 0 0 0 1.94 11.27c.26.86 1.62.49 1.35-.37-1.85-6-3.13-11.9 1.17-17 .57-.69-.41-1.68-1-1m2.97-3.17a.7.7 0 0 0 0 1.4.7.7 0 0 0 0-1.4M103.83 361.91a9.51 9.51 0 0 0 1.85-4.18c.75-3.43.33-7.49.31-10.5 0-5.54.19-11.74-2.93-16.59 7.56-1.22 8 11.33 8.5 16.42a26.57 26.57 0 0 1-.4 8.23c-.6 2.78-3.55 8.49-7.33 6.62zM66.2 330.66a9 9 0 0 0-.48.79 19.94 19.94 0 0 0-2 6c-.86 4.62-.52 9.62-.52 14.16 0 3.91.25 7.47 2.36 10.22-3.87 2.12-6.89-3.73-7.5-6.58a26.22 26.22 0 0 1-.42-8.33c.2-1.95.39-5 1-7.91.9-4.74 2.87-9.17 7.56-8.35zm30.94 25.86a65.68 65.68 0 0 0 .8-11.67c0-6.13-.69-12.88-4.63-16.6 10.6-2 11.21 11.59 11.25 19.14 0 3.2.32 6.62-.36 9.79-.1.45-.22.89-.36 1.33-1.26 3.82-6.29 6.94-10.45 6.31 2.02-2.01 3.14-5.04 3.75-8.3zM64.62 349a64.61 64.61 0 0 1 .78-11.8c1.15-5.75 4-10.45 10.9-8.89a10.47 10.47 0 0 0-1.14 1.53 16 16 0 0 0-2 5.46 35.41 35.41 0 0 0-.19 9.75c.45 5.14 0 11.4 3 15.82a15.46 15.46 0 0 0 2.28 2.59c-3.31 2.08-7.24.94-10.25-1.24-4-2.85-3.39-8.83-3.38-13.22zm22 16.65a11.63 11.63 0 0 1-6.52-2.62.82.82 0 0 0-.21-.17 12.86 12.86 0 0 1-4.08-5.58c-1.27-3.71-1-8.47-1.39-12.37a33 33 0 0 1 .19-9.46 16.4 16.4 0 0 1 .94-3c2-4.72 5.37-5.55 10.11-5.53 9.58.24 10.9 9.54 10.89 17.4a66.94 66.94 0 0 1-.65 11.83c-1 5.25-3.41 9.74-9.27 9.51zm-3.87-42.76c.27-1.24.33-2.4.54-3.5a6.3 6.3 0 0 1 1.59-3.21 6.69 6.69 0 0 1 1.08-1 1.66 1.66 0 0 1 .27.22 11.43 11.43 0 0 0 1.65 1.22 12.31 12.31 0 0 0-1 2.53 5.12 5.12 0 0 0-.15 1.11 16.65 16.65 0 0 0 .38 2.89.7.7 0 0 0 .67.51 1.73 1.73 0 0 1 1.77 2.3 13.42 13.42 0 0 0-3.91-.64A18.94 18.94 0 0 0 80 326a.7.7 0 0 0 0-.26 2.32 2.32 0 0 1-.07-1c.25-.85 1.19-1.09 2.08-1.09a.71.71 0 0 0 .67-.51V323zm30.36 25c-.47-6.14-1.18-21-11-18.65a.63.63 0 0 0-.13.06c-2.56-2.58-6.68-3.26-10.14-2.31h-.1a9.78 9.78 0 0 0-.92-.51.65.65 0 0 0 .08-.19v-.11c.39-2-.53-3.67-2.5-4a8.91 8.91 0 0 1 0-2.61 12.51 12.51 0 0 1 .94-2.84.92.92 0 0 0 .08-.31.71.71 0 0 0-.3-.8c-.74-.55-1.87-1.78-2.79-2s-1.2.25-1.83.82a9 9 0 0 0-2.41 3.33 6 6 0 0 0-.35 1.24c-.2 1-.18 2-.33 3.06a3.05 3.05 0 0 0-2.88 2.42 3.55 3.55 0 0 0 .06 1.72.68.68 0 0 0 .12.24 7.73 7.73 0 0 0-1.1.66.69.69 0 0 0-.27-.14 10.4 10.4 0 0 0-10.08 2.34.66.66 0 0 0-.19-.09c-6.17-1.51-8.73 3.85-9.9 9.56a71.13 71.13 0 0 0-1.1 9.24c-.3 3.89-.11 9.37 2.4 12.58 1.72 2.2 5.53 4 8.09 2.34a10.92 10.92 0 0 0 1.9 1.42c3.46 2.05 7.57 2.48 11 .1a13 13 0 0 0 7.12 2.75 9.22 9.22 0 0 0 5.3-1.21.69.69 0 0 0 .23.12c3.53 1 7.84-.55 10.61-3.07 2.55 1.52 6.27-.27 7.93-2.44a11.54 11.54 0 0 0 2-4.51 28 28 0 0 0 .48-8.22" transform="translate(-56 -38.88)"/><path class="cls-1" d="M78.55 333.72a7 7 0 0 0-1.12 2.82 13 13 0 0 0-.22 1.91c-.09 1.94-.41 4.26.08 6.15a.7.7 0 0 0 1.36-.14.66.66 0 0 0 0-.39c-.4-1.55-.1-3.58-.05-5.17a13.41 13.41 0 0 1 .21-2.22 5.75 5.75 0 0 1 .9-2.11.62.62 0 0 0 .11-.34c.21-.66-.83-1.18-1.29-.51m1.65-2.42a.69.69 0 0 0 0 .15v.08a.7.7 0 0 0 1.4 0 .65.65 0 0 0 0-.15v-.08a.7.7 0 0 0-1.4 0m112.9 1.38a61.61 61.61 0 0 1-3 7.14 48.91 48.91 0 0 1-9.06 12 66.67 66.67 0 0 1-10.23 9c-3.86 2.57-13.21 7-12.87-1.55.38-9.42 12.15-14 17.24-20.67 2.51-3.77 3.83-7.88 5.81-11.89a14.05 14.05 0 0 1 5.08-6.11c3.51-2.08 9.09-1.21 9.41 3.8.11 2.51-1.52 5.89-2.38 8.28zm-8 25.43c-2 1.84-4.93.19-7-1.24a63.47 63.47 0 0 0 7.17-7.37c1.24 2.64 2.18 6.5-.16 8.6zm-24-25.2c-1.14-3.79-3-9.57-1.69-13.33s5.63-3.55 8.27-1.1a13.9 13.9 0 0 1 3.51 6.68 62.59 62.59 0 0 0 3.17 10c.17.33.36.65.55 1a19.39 19.39 0 0 1-1 1.74 22.7 22.7 0 0 1-2.16 2.4l-.23-.43c-.44-.79-1.65-.08-1.21.71l.38.72c-1.2 1.08-2.5 2.14-3.81 3.2a40.89 40.89 0 0 1-5.78-11.6zm31.43-14.43c-9.33-3.5-13.37 8.72-16.87 16.12l-.09-.16c-2.38-5.13-2.31-11.84-6.17-16.19-2.39-2.69-6.43-4.14-9.63-1.88-3.85 2.71-2 8.38-1.2 12.15a44.68 44.68 0 0 0 7.23 16.8c-4.8 3.91-9.38 8.07-9.32 14.46.09 9 9.76 5.59 14.54 2.48a62.06 62.06 0 0 0 6-4.45c2.53 1.77 6.54 4 9.12 1.36 2.83-2.92 1.76-7.62.1-10.88a49.39 49.39 0 0 0 5.29-8.3c2.16-4.34 4.42-9.45 5.16-14.25a6.4 6.4 0 0 0-4.16-7.27" transform="translate(-56 -38.88)"/><path class="cls-1" d="M159 357.45a5.61 5.61 0 0 0-.2 1.8c.05.9 1.45.9 1.4 0a4.36 4.36 0 0 1 .15-1.42.7.7 0 0 0-1.35-.37m3.93-4.57a3.79 3.79 0 0 1 1-1.09c.72-.53 0-1.74-.71-1.21a5.51 5.51 0 0 0-1.49 1.6c-.47.77.74 1.47 1.21.71m7.23-6.25a.7.7 0 0 0-.71-1.21 6.12 6.12 0 0 0-1.84 1.57.73.73 0 0 0 0 1 .71.71 0 0 0 1 0 5.12 5.12 0 0 1 1.55-1.35m3.47-4.98l-.92 1.15a.72.72 0 0 0 0 1 .7.7 0 0 0 1 0l.92-1.15a.72.72 0 0 0 0-1 .71.71 0 0 0-1 0m5.49-6.48a.72.72 0 0 0-1 .25 6 6 0 0 0-.88 1.7c-.29.85 1.06 1.22 1.35.37a4.86 4.86 0 0 1 .74-1.36.7.7 0 0 0-.25-1m2.99-4.65a4.21 4.21 0 0 1 .51-1.44.7.7 0 0 0-1.21-.71 5.28 5.28 0 0 0-.65 1.78c-.15.88 1.2 1.26 1.35.37m3.25-5.78a5.51 5.51 0 0 1 .7-1.06c.58-.68-.41-1.68-1-1a7.16 7.16 0 0 0-.92 1.35c-.41.8.79 1.51 1.21.71m-21.17 36.36l-1.42.56c-.83.33-.47 1.68.37 1.35l1.42-.56c.83-.33.47-1.68-.37-1.35m6.53-3.61l-1.09.77c-.73.52 0 1.73.71 1.21l1.09-.77c.73-.52 0-1.73-.71-1.21m6.1-4.8l-1.58 1.77c-.6.67.39 1.66 1 1l1.58-1.77c.6-.67-.39-1.66-1-1m5.51-5.68a9.45 9.45 0 0 0-.73 1.45.7.7 0 0 0 .49.86.72.72 0 0 0 .86-.49 7.36 7.36 0 0 1 .59-1.11c.48-.76-.73-1.47-1.21-.71m4.5-5.83l-1.16 1.8c-.49.76.72 1.46 1.21.71l1.16-1.8c.49-.76-.72-1.46-1.21-.71m2.38-5.88l-.78 2c-.33.84 1 1.2 1.35.37l.78-2c.33-.84-1-1.2-1.35-.37m2.32-6.29a15.06 15.06 0 0 1-.85 2.27c-.38.81.82 1.52 1.21.71a17.4 17.4 0 0 0 1-2.6.7.7 0 0 0-1.35-.37m.65-5.53a.29.29 0 0 1 0 .27.7.7 0 0 0 .7.7.72.72 0 0 0 .7-.7 1.35 1.35 0 0 0-.07-.64c-.3-.84-1.65-.48-1.35.37m-26.99 32.07a8.88 8.88 0 0 0-1.36 1.21c-.6.67.38 1.66 1 1a7.23 7.23 0 0 1 1.08-1c.72-.53 0-1.74-.71-1.21m6.49-4.85a3.47 3.47 0 0 0-.89 1 .7.7 0 0 0 1.21.71 2.46 2.46 0 0 1 .67-.76.7.7 0 0 0 0-1 .72.72 0 0 0-1 0m5.12-5.65a8.38 8.38 0 0 0-.88 1.7c-.33.84 1 1.2 1.35.37a6.78 6.78 0 0 1 .74-1.36c.51-.75-.7-1.45-1.21-.71m5.6-4.26a.71.71 0 0 0-.25-1 .72.72 0 0 0-1 .25 6.38 6.38 0 0 0-.89 1.63c-.33.84 1 1.2 1.35.37a5.24 5.24 0 0 1 .75-1.29m2.37-7.63q-.36.72-.68 1.46a.72.72 0 0 0 .25 1 .7.7 0 0 0 1-.25q.32-.74.68-1.46c.4-.8-.8-1.51-1.21-.71m3.19-3.9c.26-.79.55-1.57.88-2.33a.72.72 0 0 0-.25-1 .7.7 0 0 0-1 .25c-.38.88-.72 1.76-1 2.67s1.07 1.22 1.35.37M185.71 355a5 5 0 0 0 .09-1.59.72.72 0 0 0-.7-.7.71.71 0 0 0-.7.7 3.78 3.78 0 0 1 0 1.22c-.18.88 1.17 1.26 1.35.37m-14.35-21.22c.16.89 1.51.51 1.35-.37a5.38 5.38 0 0 0-.57-1.59c-.43-.79-1.64-.09-1.21.71a4.16 4.16 0 0 1 .43 1.25m-.66-6.67a4.76 4.76 0 0 0-.31-1.65c-.32-.83-1.68-.47-1.35.37a3.63 3.63 0 0 1 .26 1.28.7.7 0 0 0 1.4 0m-3.46-5.35c.29.85 1.64.48 1.35-.37a6.53 6.53 0 0 0-.61-1.31c-.47-.77-1.68-.06-1.21.71a4.82 4.82 0 0 1 .47 1M180.23 357l1.15.67a.7.7 0 0 0 .71-1.21l-1.15-.67a.7.7 0 0 0-.71 1.21m-13.1-15.82c-.5-.74-1.72 0-1.21.71.26.39.48.81.76 1.19a.72.72 0 0 0 1 .25.7.7 0 0 0 .25-1c-.28-.38-.5-.8-.76-1.19M164 335.6c-.37-.82-1.57-.11-1.21.71l.76 1.7c.37.82 1.58.11 1.21-.71l-.76-1.7m-.81-3.53l-.41-1.82c-.2-.88-1.55-.51-1.35.37l.41 1.82c.19.88 1.54.51 1.35-.37m-1.1-5.28a13.17 13.17 0 0 1-.45-2 .72.72 0 0 0-.7-.7.7.7 0 0 0-.7.7 15.61 15.61 0 0 0 .5 2.4.7.7 0 0 0 1.35-.37m-.34-6.82c.43-.79-.78-1.5-1.21-.71a1.54 1.54 0 0 0-.2.74.7.7 0 0 0 1.4 0m7.26 15.14a.7.7 0 0 0-1.21.71c.24.43.45.87.71 1.29a.7.7 0 0 0 1.21-.71c-.26-.42-.47-.86-.71-1.29m-1.63-4.74q-.18-.68-.4-1.35c-.28-.85-1.63-.49-1.35.37.14.45.28.9.4 1.35a.7.7 0 0 0 1.35-.37m-1.49-5.43a25.5 25.5 0 0 0-.49-2.27.7.7 0 0 0-1.35.37q.29 1.13.49 2.27c.15.89 1.5.51 1.35-.37m117.82 6.85a17.05 17.05 0 0 1-2.31-4.59 13 13 0 0 0 4.19-2.26v.63c-.04 1.49-.24 5.37-1.88 6.22zm.9-11.54c.65.34.88 1.6 1 2.86a11.54 11.54 0 0 1-4.55 2.74 17 17 0 0 1-.39-2.51.59.59 0 0 0 0-.11c.93-1.19 2.78-3.58 3.94-2.97zm-26.49 34.1c-.67 1-.91 2.13-1.54 3.1a12.47 12.47 0 0 1-3.59 3.07 53.1 53.1 0 0 1-4.61 2.81 15.18 15.18 0 0 0 3.39-5.46 10.71 10.71 0 0 0 .17-1.23c0-.23.19-.75.26-1.17a2.6 2.6 0 0 0 .58.15.68.68 0 0 0 .61-.35c2-4.05 3.46-8.3 5-12.52a17.92 17.92 0 0 0 1.07-5.92.68.68 0 0 0 1.09-.11c1.52-3.5 1.62-8.09 1.88-11.88a.54.54 0 0 0-.08-.59 3.91 3.91 0 0 1-.78-1.8 6.49 6.49 0 0 0 1.66-.63 10.58 10.58 0 0 0 4.58 3.94 92.74 92.74 0 0 1-4.37 18.76c-.21.64.51 1 1 .79l.42-.12c-.82 1.11-1.89 1.9-2.7 3.08a36 36 0 0 0-2.83 6c-.17-.11-.45-.31-.52-.34a.71.71 0 0 0-.69.42zm7.77-41.41c.65.14 1.36 1.76 1.88 3.21-.56.5-1.13 1.08-1.71 1.66a9.3 9.3 0 0 1-2-2.67c.55-1.15 1.27-2.29 1.83-2.2zm2.36 4.66l.17.55c.44 1.47 1.53 5.1.2 6.45a9.31 9.31 0 0 1-4.12-3.46l-.05-.06a42.58 42.58 0 0 0 3.8-3.45zm-5.25-.23l.29-.66a13.2 13.2 0 0 0 1.76 2.07 9.39 9.39 0 0 1-3.39 2.21 16.1 16.1 0 0 1 1.35-3.58zm22.6 1.13a.71.71 0 0 0-.79-.32c-2.63.87-4.45 3.17-6.2 5.2s-2.93 3.39-2 6.24c-1.16 2.94-2.38 6.58-4.31 9.27a3.64 3.64 0 0 0-.4-.61c-.37-.44-1-.13-1.17.31-.43 1.13-.65 2.35-1.14 3.46-1.08 2.44-3.36 4.76-5 6.84-.85 1.07-1.92 2.94-3.09 4.26a21.65 21.65 0 0 1 2.44-4.57c1.14-1.5 2.42-2.49 3.17-4.27.22-.52-.4-1-.86-.86l-.95.24a91.15 91.15 0 0 0 4-17.78c2.06-1.41 1.33-3.95.93-6.1-.53-2.87-1.58-6.36-3.86-8.32a.72.72 0 0 0-.85-.11c-2.23 1.6-3.26 4.27-4.3 6.71-1.14 2.67-1.9 4.24-.11 6.71-.22 3.17-.26 7-1.29 10.13a3.43 3.43 0 0 0-.54-.44.71.71 0 0 0-1.05.61c-.06 1.11.05 2.22 0 3.32-.16 2.36-1.3 4.62-2.13 6.81-.91 2.42-1.7 5.56-3.09 7.71a1.18 1.18 0 0 0-.23 1.05 1.47 1.47 0 0 0-.4-.45s-.59-.16-.66-.17a.71.71 0 0 0-.67.52c-.42 1.25-.2 2.65-.62 3.89-.9 2.64-3.49 5-5.26 7.17a.58.58 0 0 0-.09.85.63.63 0 0 0 .93.27 41.6 41.6 0 0 0 10.39-6.31 7 7 0 0 0 2.33-3.58v-.19a.89.89 0 0 0 .48.42 1 1 0 0 0 .23.07.55.55 0 0 0 .64-.21 127.12 127.12 0 0 0 9.12-11.05 15.75 15.75 0 0 0 2.23-4.55.71.71 0 0 0 1.11.14c2.52-2.89 4-7.21 5.38-10.76a.59.59 0 0 0 .08-.58c-.74-2.17.16-3.5 1.38-4.88a17.94 17.94 0 0 0 3.25 8.05.7.7 0 0 0 .09.08 94.26 94.26 0 0 1-9.82 16.49c-.4.56.26 1.1.79 1a3.09 3.09 0 0 1 .39 0c-1 .7-2.11 1.1-3.15 1.92-1.58 1.24-2.77 3.23-4.09 4.75a76.26 76.26 0 0 1-11.47 11.28c-.71.54 0 1.75.71 1.21A73.64 73.64 0 0 0 267 358.95c1.58-1.8 3.14-4.39 5.1-5.74 1.5-1 3-1.54 4.19-3a.71.71 0 0 0-.5-1.2l-.95-.06a90 90 0 0 0 9.16-15.71c2.4-.77 2.45-3.32 2.73-5.55.36-2.91.38-6.52-1.17-9.1" transform="translate(-56 -38.88)"/><path class="cls-1" d="M278.26 339.35a8.64 8.64 0 0 0 .54-3.46c0-.48-.59-.93-1.05-.6a17.38 17.38 0 0 0-2.6 2.27c-.61.66.38 1.65 1 1q.57-.61 1.19-1.15a7.74 7.74 0 0 1-.41 1.58c-.32.84 1 1.21 1.35.37M267 355.32a8.62 8.62 0 0 0 .66-3.44.71.71 0 0 0-1.05-.61 17.38 17.38 0 0 0-2.68 2.18.7.7 0 0 0 1 1 16 16 0 0 1 1.21-1.08 7.91 7.91 0 0 1-.48 1.59c-.35.83 1 1.19 1.35.37M264 331.57a16.59 16.59 0 0 1 .8-1.49 7.62 7.62 0 0 1 .09 1.6c0 .9 1.35.9 1.4 0a8.64 8.64 0 0 0-.53-3.46.71.71 0 0 0-1.28-.17 16.45 16.45 0 0 0-1.69 2.81c-.38.81.82 1.52 1.21.71m-4.12 14.68a7.79 7.79 0 0 1 0 1.63c-.08.9 1.32.89 1.4 0a8.62 8.62 0 0 0-.4-3.48.71.71 0 0 0-1.17-.31 17.23 17.23 0 0 0-1.9 2.88c-.42.8.79 1.51 1.21.71.26-.49.54-1 .84-1.43m112.02 2.06c-2.7 4.17-5.9 8.38-10.21 11-4.81 2.91-10.7 3.26-16.15 2.57-2.57-.33-5.13-.58-7.25-2.2-.45-.34-2.17-1.57-1.49-2.27l1.9.67c6.78 1.77 15.5-.67 19.95-6.12a29.1 29.1 0 0 0 5-10.5c.67-2.32 1-4.88 1.92-7.12 1.86-4.62 5.49-5.35 9.56-3.62 5.51 3.54-.72 13.71-3.23 17.59zm1.38-20.23a.58.58 0 0 0 .67-.64c1.21-4.62 1.68-9 .22-13.58a4.62 4.62 0 0 0 1.08-.28 1.26 1.26 0 0 0 .45-.28c.63 1 .44 3.54.46 4.65a31.79 31.79 0 0 1-1.54 9.85.64.64 0 0 0 0 .1v.07a.56.56 0 0 0 0 .17.54.54 0 0 0 0 .14v.07a.6.6 0 0 0 .14.15.66.66 0 0 0 .09.07c.6.3 1.68.94 1.84 1.71a6.91 6.91 0 0 0-.76-.6.65.65 0 0 0-.24-.18 12.5 12.5 0 0 0-5.28-1.08c.49-.56 2.47-.42 2.87-.33zm4.62 3.56c1-1.59-.39-3.16-1.76-4 1.43-4.49 2.28-10.65.81-15.1a.72.72 0 0 0-.68-.51 12.51 12.51 0 0 0-3.18.62.71.71 0 0 0-.49.86c1.62 4.48 1.24 8.66.1 13.14-1.54-.06-3.58.28-3.64 2a6.41 6.41 0 0 0-2.44 1.11c-3.26 2.45-3.48 8.33-4.55 11.94-1.89 6.33-5 11.87-11.57 14.14a22.87 22.87 0 0 1-7.32 1.29 15.54 15.54 0 0 1-3.68-.29c-1-.23-2.07-1-3-1.12-2.26-.22-2.25 1.49-1.19 3 2.37 3.36 6.17 4.06 10 4.55 9.64 1.25 18-1.49 24.14-9.12a47 47 0 0 0 8.1-14c1-2.91 1.8-6 .4-8.45" transform="translate(-56 -38.88)"/><path class="cls-1" d="M373.4 335.88c.42 4.59-3.28 9.5-5.73 13.16-.5.75.71 1.45 1.21.71 2.62-3.91 6.38-8.91 5.92-13.86-.08-.89-1.48-.9-1.4 0m.48-1.89a.7.7 0 0 0 0-1.4.7.7 0 0 0 0 1.4m-267.02-84.85c-.32.12-.67.5-.49.86 1.07 2.15-1.2 5.81-3.68 3.67a.71.71 0 0 0-1.19.5c0 1.66-2.85 2.56-4 2.56a5.06 5.06 0 0 1-4-2.25c-.36-.45-1-.12-1.17.31-.75 2-2.4 3.31-4.44 2.07a4.58 4.58 0 0 1-2-2.47.71.71 0 0 0-1.21 0 7.65 7.65 0 0 1-2.46 2.82q-4.58 1.48-5.31-2.49c-.13-.7-1.17-.63-1.35 0-2.42 3.18-5.77 2.68-5.87-.18.08-.53-.49-1.21-1-.79-3.11 2.45-7.61-1.88-5.19-4a.71.71 0 0 0-.49-1.19c-3.71-.29-4.44-5.32 0-5.78a.71.71 0 0 0 .35-1.31c-3.4-2.21-1.48-8.28 2.62-6.1a.7.7 0 0 0 .85-1.1q-1.15-3.66 1.89-3.15a.7.7 0 0 0 .86-.49c.26-1.38.48-3.3 1.71-4.12a3.24 3.24 0 0 1 4.15 1.75.71.71 0 0 0 1.28-.17 4.8 4.8 0 0 1 2-2.87q2.24-2.28 5.5 1c.12.84 1.3.53 1.38-.19.35-3.15 6.27-2 6.3.57a.71.71 0 0 0 1.3.35q6.34-3.52 6.06 2.42a.71.71 0 0 0 .86.86 2.75 2.75 0 0 1 3.42.31 2.58 2.58 0 0 1 .9 2.84c-.18.43 0 1.12.6 1.05 4.05-.43 3.52 4.61 1.09 6.25a.71.71 0 0 0 .17 1.28c3.8.76 4.59 5.66.56 7.18zm-19.38 10.56v-1.12a3.28 3.28 0 0 0 .71.25q-.38.42-.71.87zM82 258.9v.68l-.41-.53zm7.76 16.63c-3.43 0-6.85.09-10.28.1-.14-6-1.13-13.07-5.24-17.64a4.54 4.54 0 0 0 1.87-1.35 4.72 4.72 0 0 0 3.71 2.61H80a.66.66 0 0 0 .08.14 12.28 12.28 0 0 1 2.21 3.42c.28.63 1.36.32 1.3-.35a58.09 58.09 0 0 1-.21-4.37 9.73 9.73 0 0 0 1.84-2 9.45 9.45 0 0 0 .85 1.3 1.94 1.94 0 0 1 0 .3c.08 1.43.07 2.86.07 4.3a.71.71 0 0 0 1.3.35 24.36 24.36 0 0 1 2.52-3.55 4.59 4.59 0 0 0 3.2-2.58 7.23 7.23 0 0 0 1.84 1.35c-4.44 4.9-5.26 11.62-5.27 17.96zM107.91 241c1.51-1.24 2.54-2.78 1.79-4.91a4.52 4.52 0 0 0-3.8-3.12c.52-2.93-2.38-4.72-5.16-4.38.32-4.19-4.66-5.8-7.78-3.4-1.21-3-6.14-3.48-8.06-1.05a4 4 0 0 0-4-1.52 6.91 6.91 0 0 0-5.07 3.9 4.68 4.68 0 0 0-5-1.38h-.1a.67.67 0 0 0-.12 0c-2 1.26-2 2.42-2.29 4.34a3.25 3.25 0 0 0-3.41 4.06 4.92 4.92 0 0 0-4.75 2.44c-.92 1.86 0 4.12 1.36 5.61-4.12 1.47-4.14 6.88.31 8a5.34 5.34 0 0 0 .69 4.65c1.52 2.16 3.81 2.24 5.88 1.2.38 2 2.31 2.93 4.28 2.8 4.5 4.41 5.37 12 5.45 18a.65.65 0 0 0 .16.42l.07.09a.64.64 0 0 0 .47.19c3.89 0 7.78-.11 11.67-.11a.64.64 0 0 0 .43-.16l.07-.05a.64.64 0 0 0 .19-.47c0-6.34.58-13.33 5.25-18.15a5.18 5.18 0 0 0 2.68-.12 6.06 6.06 0 0 0 3.56-2.67 3.82 3.82 0 0 0 4.2-.41c1.74-1.3 1.74-2.91 1.1-4.69a5.06 5.06 0 0 0 0-9.21" transform="translate(-56 -38.88)"/><path class="cls-1" d="M80.38 265.82c.84 2.27.72 5.09.73 7.47a.7.7 0 0 0 1.4 0c0-2.5.11-5.46-.78-7.85-.31-.84-1.66-.47-1.35.37m-.12-2.95a.7.7 0 0 0 0 1.4.7.7 0 0 0 0-1.4M72 240.67a2.55 2.55 0 0 0-1.82 2.6c.06.89 1.46.9 1.4 0a1.09 1.09 0 0 1 2.08-.55c.4.81 1.61.1 1.21-.71a2.55 2.55 0 0 0-2.87-1.34m20.87-7.14a2.07 2.07 0 0 0-2.15 2.47c.17.88 1.52.51 1.35-.37-.14-.69.75-.81 1.2-.58a2.19 2.19 0 0 1 1 1.69c.16.89 1.51.51 1.35-.37a3.15 3.15 0 0 0-2.71-2.85m-4.55 11.35a2.34 2.34 0 0 0-2.19 2.53c.09.89 1.49.9 1.4 0a1 1 0 0 1 .79-1.13.94.94 0 0 1 .92 1c0 .9 1.37.9 1.4 0a2.36 2.36 0 0 0-2.32-2.42m379.33 100.7c-2.24-5.2-6.42-8.75-10.39-12.59-2-1.89-4.6-4.09-5.67-6.65-1.47-3.52-.93-8.53-1-12.28a.7.7 0 0 0-1.4 0c.09 4.4-.65 10.21 1.85 14.1 2.12 3.29 5.33 5.93 8.16 8.57 4.32 4 7.88 8.7 8.5 14.72a24.69 24.69 0 0 1-.69 9.66c-1 3.27-4.75 6.42-8.16 4.63a24.73 24.73 0 0 0 1-7.17c.33-6.16 0-12.36-3.2-17.8a.7.7 0 0 0-1.21.71c2.46 4.25 3.13 9 3.11 13.81 0 4.24.55 12.88-5.42 12.87-5.39 0-5.45-5.15-5.71-9.25a69.29 69.29 0 0 1 .38-12.46c.11-.89-1.3-.88-1.4 0a58.79 58.79 0 0 0 .21 17.54 11 11 0 0 0 .77 2.85c-2.51 3-7.54.4-8.59-2.5a33.83 33.83 0 0 1-1.63-7.7 23 23 0 0 1 3.8-15.87c.5-.75-.71-1.46-1.21-.71-4.79 7.25-4.84 15-2.74 23.14a15.09 15.09 0 0 0 .94 2.71c-7 2.89-11.68-7-11.4-12.81.31-6.62 3.14-10.37 7.65-14.82 3.27-3.22 8-6.23 10.37-10.21 2.68-4.54 2.14-10.91 2.14-16a.7.7 0 0 0-1.4 0c0 4.12.21 8.52-.89 12.53-1 3.71-4 5.91-6.72 8.42-3.88 3.56-9 7.37-11 12.38s-2.47 12 .59 16.66c2.75 4.18 6.62 7.06 11.38 5a5.12 5.12 0 0 0 3.62 2.12c2 .28 4.41.11 5.95-1.29a3.61 3.61 0 0 0 .59.42 9.36 9.36 0 0 0 5.93 1.11 5.1 5.1 0 0 0 3.47-2.47c3.7 2 7.93-.57 9.63-4.19 2.34-5 1.93-12.27-.21-17.24" transform="translate(-56 -38.88)"/><path class="cls-1" d="M452.92 336.28c.74.52 1.44-.69.71-1.21a6.58 6.58 0 0 1-2.17-2.64c-.38-.82-1.59-.11-1.21.71a8 8 0 0 0 2.67 3.14M450 301.52v-.09a.7.7 0 0 0-1.4 0v.09a.7.7 0 0 0 1.4 0" transform="translate(-56 -38.88)"/></svg>